<svg width="60" height="60" viewBox="0 0 60 60" fill="none" xmlns="http://www.w3.org/2000/svg">
<circle cx="30" cy="30" r="30" fill="#78BC1E"/>
<path d="M38.9999 33C38.7166 33 38.4999 33 37.9999 33C37.9999 33 37.9999 32.2834 37.9999 32C37.9999 31.7167 37.9999 31 37.9999 31C37.9999 31 38.7166 31 38.9999 31C39.2833 31 39.9999 31 39.9999 31C39.9999 31.2062 39.9999 31.7167 39.9999 32C39.9999 32.2834 39.9999 32.7062 39.9999 33C39.6881 33 39.2833 33 38.9999 33ZM34.9999 33C34.7166 33 34 33 34 33C34 33 33.9999 32.2834 33.9999 32C33.9999 31.7167 34 31 34 31C34 31 34.7166 31 34.9999 31C35.2833 31 36 31 36 31C36 31 35.9999 31.7167 35.9999 32C35.9999 32.2834 36 32.5 36 33C36 33 35.2833 33 34.9999 33ZM30.9999 33C30.7166 33 30 33 30 33C29.9999 32.5 29.9999 32.2834 29.9999 32C29.9999 31.7167 30 31.1776 30 31C30.2874 31 30.7166 31 30.9999 31C31.2833 31 32 31 32 31C31.9999 31.2875 31.9999 31.7167 31.9999 32C31.9999 32.2834 32 33 32 33C32 33 31.2833 33 30.9999 33ZM44.9999 41.575V26C44.9999 25.45 44.8041 24.9792 44.4124 24.5875C44.0208 24.1959 43.5499 24 42.9999 24H26.9999C26.4499 24 25.9791 24.1959 25.5874 24.5875C25.1958 24.9792 24.9999 25.45 24.9999 26V38C24.9999 38.55 25.1958 39.0209 25.5874 39.4125C25.9791 39.8042 26.4499 40 26.9999 40H40.9999L43.2999 42.3C43.6166 42.6167 44.5 43.5 45 44C45 43.5 44.9999 42.025 44.9999 41.575Z" fill="white"/>
<path fill-rule="evenodd" clip-rule="evenodd" d="M14.0001 18V33.575L14 36L15.7001 34.3L18.0001 32H24V25C24 23.8954 24.8954 23 26 23H34.0001V18C34.0001 17.45 33.8042 16.9792 33.4126 16.5875C33.0209 16.1958 32.5501 16 32.0001 16H16.0001C15.4501 16 14.9792 16.1958 14.5876 16.5875C14.1959 16.9792 14.0001 17.45 14.0001 18Z" fill="white"/>
</svg>
