<?xml version="1.0" encoding="UTF-8"?>
<svg width="175px" height="35px" viewBox="0 0 175 35" version="1.1" xmlns="http://www.w3.org/2000/svg" xmlns:xlink="http://www.w3.org/1999/xlink">
    <title>Forex4you logo</title>
    <defs></defs>
    <g id="Symbols" stroke="none" stroke-width="1" fill="none" fill-rule="evenodd">
        <g id="logo/forex4you/color">
            <path d="M138.477944,16.9511774 C138.477944,20.1340228 140.483099,22.1073117 143.729526,22.1073117 C146.912297,22.1073117 148.949318,20.1021567 148.949318,16.9830435 C148.949318,13.7684072 146.944163,11.7632523 143.729526,11.7632523 C140.514966,11.7632523 138.477944,13.7684072 138.477944,16.9511774 M154.40641,16.9187839 C154.40641,22.2240034 150.155635,25.7498429 143.76305,25.7498429 C137.20571,25.7498429 133.020852,22.2569242 133.020852,16.7870254 C133.020852,11.6135644 137.37039,8.08772492 143.730054,8.08772492 C150.155635,8.08772492 154.40641,11.6135644 154.40641,16.9187839" id="Fill-1" fill="#78BC1E"></path>
            <path d="M120.957635,24.9938323 L112.754406,8.721017 L118.619806,8.71574365 L123.536756,19.5886451 L128.617708,8.71031963 L133.942288,8.70203293 L123.164156,31.473503 L117.887714,31.475085 C117.887714,31.475085 120.554976,25.8907544 120.957635,24.9938323" id="Fill-3" fill="#78BC1E"></path>
            <path d="M169.614716,17.3422342 C169.614716,19.5748214 167.753674,21.1575807 165.622034,21.1575807 C163.490469,21.1575807 161.629352,19.3279531 161.629352,17.3422342 L161.629352,8.72263668 L156.280665,8.72263668 L156.280665,16.7863474 C156.280665,21.6240465 160.853868,25.5597762 165.622034,25.5597762 C170.3902,25.5597762 174.963403,21.6240465 174.963403,16.7863474 L174.963403,8.72263668 L169.614716,8.72263668 L169.614716,17.3422342 Z" id="Fill-5" fill="#78BC1E"></path>
            <polygon id="Fill-8" fill="#78BC1E" points="101.203803 15.553234 111.600747 5.37023784 108.302264 2.09156802 94.301059 15.6608857 94.301059 20.1482081 105.909593 20.1482081 105.909593 31.4529219 111.163134 31.4529219 111.163134 15.553234"></polygon>
            <path d="M0.00617735687,3.136257 L0.00617735687,25.1470082 L5.56760654,25.1470082 L5.56760654,16.3235579 L17.7889798,16.3235579 L17.7889798,11.8030887 L5.56760654,11.8030887 L5.56760654,7.64987086 L18.9477615,7.64987086 L18.9477615,3.136257 L0.00617735687,3.136257 Z M54.161709,16.9256242 C54.161709,11.5593091 57.9146793,8.16357081 64.1166703,8.16357081 C70.5068446,8.16357081 74.0749462,11.5298536 74.0749462,17.5662613 L74.0749462,18.2601593 L59.936257,18.2601593 C59.936257,20.6547891 61.6710396,22.210353 64.1166703,22.210353 C66.0736117,22.210353 67.540734,21.3236763 68.1507856,19.8078132 L73.8039712,19.8078132 C72.4309406,23.5402927 69.0101916,25.7229337 64.1166703,25.7229337 C57.9804455,25.7229337 54.161709,22.3248601 54.161709,16.9256242 Z M64.2414227,11.5593091 C61.854703,11.5593091 60.2650882,12.8348579 60.0882049,14.865551 L68.3968252,14.865551 C68.2119565,12.8348579 66.6200818,11.5593091 64.2414227,11.5593091 Z M47.2330499,10.8926819 L47.2330499,8.74288635 L42.1025291,8.74288635 L42.1025291,25.1480628 L47.2330499,25.1480628 L47.2330499,17.8123009 C47.2330499,14.5050043 49.0686289,12.5320921 52.060805,12.5320921 C52.6401205,12.5320921 53.4055101,12.5638829 53.6798752,12.5933384 L53.6798752,8.28485794 C53.281963,8.22361171 52.6130004,8.16357081 52.2455984,8.16357081 C50.3838786,8.16357081 48.7636784,9.07736763 47.2330499,10.8926819 Z M19.5248924,16.9244942 C19.5248924,11.5593091 23.4319199,8.16357081 30.005833,8.16357081 C36.5785407,8.16357081 40.4527981,11.5593091 40.4527981,16.9244942 C40.4527981,22.3248601 36.5127744,25.7229337 30.005833,25.7229337 C23.4976862,25.7229337 19.5248924,22.3248601 19.5248924,16.9244942 Z M25.0850409,16.959675 C25.0850409,19.842994 27.0102669,21.8146255 30.005833,21.8146255 C32.9390228,21.8146255 34.8925743,19.8078132 34.8925743,16.9244942 C34.8925743,14.0525506 32.9390228,12.0751937 30.005833,12.0751937 C27.0102669,12.0751937 25.0850409,14.0798214 25.0850409,16.959675 Z M87.1852561,8.73949634 L93.8112247,8.73949634 L86.7544232,16.9244942 L94.3011192,25.1470082 L87.4868166,25.1470082 L83.6988162,20.5697374 L80.062613,25.1470082 L73.3380327,25.1470082 L80.6431339,16.7770663 L74.1361924,8.73949634 L80.5524322,8.73949634 L83.7871825,13.106963 L87.1852561,8.73949634 Z" id="Clip-12" fill="#202F3D"></path>
        </g>
    </g>
</svg>