<svg width="46" height="46" viewBox="0 0 46 46" fill="none" xmlns="http://www.w3.org/2000/svg">
<circle cx="23" cy="23" r="16" fill="white"/>
<path d="M0.499794 21.8264C0.499794 9.27985 10.321 0 22.9998 0C35.6785 0 45.4998 9.27985 45.4998 21.8264C45.4998 34.3659 35.6785 43.6528 22.9998 43.6528C20.7287 43.6528 18.5392 43.3519 16.4959 42.788C16.0966 42.6793 15.672 42.7131 15.295 42.8836L10.8118 44.8538C10.5413 44.9739 10.2454 45.0257 9.95016 45.0044C9.65493 44.9831 9.36949 44.8894 9.11903 44.7317C8.86858 44.5739 8.66081 44.3569 8.51409 44.0999C8.36737 43.8428 8.28621 43.5535 8.27776 43.2577L8.14558 39.2442C8.13709 39.0029 8.08018 38.7658 7.97824 38.5469C7.87629 38.3281 7.73139 38.1319 7.55214 37.9702C5.29633 35.9357 3.50033 33.4435 2.28398 30.6599C1.06763 27.8763 0.458894 24.8653 0.498388 21.8278L0.499794 21.8264ZM16.1007 17.7173L9.5012 28.2206C8.84167 29.2092 10.1017 30.3595 11.0396 29.6269L18.144 24.2438C18.3773 24.0619 18.6646 23.9631 18.9603 23.9631C19.2561 23.9631 19.5434 24.0619 19.7767 24.2438L25.0206 28.1841C25.3943 28.4614 25.8212 28.6588 26.2746 28.7639C26.728 28.869 27.1982 28.8796 27.6559 28.7951C28.1136 28.7105 28.5489 28.5326 28.9348 28.2724C29.3207 28.0122 29.6489 27.6753 29.8989 27.2827L36.4984 16.7794C37.1579 15.7908 35.8979 14.663 34.9599 15.3731L27.8556 20.7563C27.6263 20.9378 27.3423 21.0367 27.0498 21.0367C26.7573 21.0367 26.4733 20.9378 26.244 20.7563L20.9931 16.8159C20.6198 16.5338 20.192 16.3324 19.7367 16.2245C19.2814 16.1167 18.8086 16.1048 18.3485 16.1896C17.8883 16.2744 17.4508 16.454 17.0639 16.717C16.6769 16.98 16.3489 17.3207 16.1007 17.7173Z" fill="white"/>
<path d="M0.499794 21.8264C0.499794 9.27985 10.321 0 22.9998 0C35.6785 0 45.4998 9.27985 45.4998 21.8264C45.4998 34.3659 35.6785 43.6528 22.9998 43.6528C20.7287 43.6528 18.5392 43.3519 16.4959 42.788C16.0966 42.6793 15.672 42.7131 15.295 42.8836L10.8118 44.8538C10.5413 44.9739 10.2454 45.0257 9.95016 45.0044C9.65493 44.9831 9.36949 44.8894 9.11903 44.7317C8.86858 44.5739 8.66081 44.3569 8.51409 44.0999C8.36737 43.8428 8.28621 43.5535 8.27776 43.2577L8.14558 39.2442C8.13709 39.0029 8.08018 38.7658 7.97824 38.5469C7.87629 38.3281 7.73139 38.1319 7.55214 37.9702C5.29633 35.9357 3.50033 33.4435 2.28398 30.6599C1.06763 27.8763 0.458894 24.8653 0.498388 21.8278L0.499794 21.8264ZM16.1007 17.7173L9.5012 28.2206C8.84167 29.2092 10.1017 30.3595 11.0396 29.6269L18.144 24.2438C18.3773 24.0619 18.6646 23.9631 18.9603 23.9631C19.2561 23.9631 19.5434 24.0619 19.7767 24.2438L25.0206 28.1841C25.3943 28.4614 25.8212 28.6588 26.2746 28.7639C26.728 28.869 27.1982 28.8796 27.6559 28.7951C28.1136 28.7105 28.5489 28.5326 28.9348 28.2724C29.3207 28.0122 29.6489 27.6753 29.8989 27.2827L36.4984 16.7794C37.1579 15.7908 35.8979 14.663 34.9599 15.3731L27.8556 20.7563C27.6263 20.9378 27.3423 21.0367 27.0498 21.0367C26.7573 21.0367 26.4733 20.9378 26.244 20.7563L20.9931 16.8159C20.6198 16.5338 20.192 16.3324 19.7367 16.2245C19.2814 16.1167 18.8086 16.1048 18.3485 16.1896C17.8883 16.2744 17.4508 16.454 17.0639 16.717C16.6769 16.98 16.3489 17.3207 16.1007 17.7173Z" fill="#4F9BFD"/>
</svg>
