<svg width="46" height="45" viewBox="0 0 46 45" fill="none" xmlns="http://www.w3.org/2000/svg">
<circle cx="23" cy="22.5" r="22.5" fill="#FFC700"/>
<path d="M23 9.875C18.2932 9.875 14.4773 13.5478 14.4773 18.0781V21.4363C12.2223 21.8266 10.5 23.7276 10.5 26.0078C10.5 28.5689 12.6687 30.6562 15.3295 30.6562H17.0341C17.4803 30.6562 17.8863 30.2655 17.8864 29.8359V22.1797C17.8863 21.7502 17.4803 21.3594 17.0341 21.3594H16.1818V18.0781C16.1818 14.4283 19.208 11.5156 23 11.5156C26.792 11.5156 29.8182 14.4283 29.8182 18.0781V21.3594H28.9659C28.499 21.3655 28.123 21.834 28.1136 22.1797V29.8359C28.1137 30.2655 28.5197 30.6562 28.9659 30.6562H29.6761C29.505 31.1552 29.1712 31.6169 28.6197 32.0234C27.8753 32.5722 26.7223 33.0063 25.0952 33.1001C24.7496 32.3125 23.9367 31.75 23 31.75C21.7549 31.75 20.7273 32.7391 20.7273 33.9375C20.7273 35.1359 21.7549 36.125 23 36.125C23.9533 36.125 24.7782 35.5503 25.1129 34.7407C27.0427 34.6432 28.5668 34.1355 29.6584 33.3308C30.6412 32.6063 31.2522 31.6334 31.4517 30.5965C33.7422 30.2348 35.5 28.3124 35.5 26.0078C35.5 23.7276 33.7777 21.8266 31.5227 21.4363V18.0781C31.5227 13.5478 27.7069 9.875 23 9.875V9.875Z" fill="white"/>
</svg>
