<svg width="46" height="45" viewBox="0 0 46 45" fill="none" xmlns="http://www.w3.org/2000/svg">
<path d="M23 0C17.034 0 11.307 2.37199 7.0918 6.59004C2.87221 10.8098 0.501169 16.5325 0.5 22.5C0.5 28.465 2.87305 34.1919 7.0918 38.41C11.307 42.628 17.034 45 23 45C28.966 45 34.693 42.628 38.9082 38.41C43.127 34.1919 45.5 28.465 45.5 22.5C45.5 16.535 43.127 10.8081 38.9082 6.59004C34.693 2.37199 28.966 0 23 0Z" fill="url(#paint0_linear_12542_123209)"/>
<path d="M10.6848 22.2616C17.245 19.4041 21.6184 17.5201 23.8051 16.6099C30.0559 14.0108 31.3532 13.5594 32.2005 13.5441C32.3868 13.5411 32.8016 13.5871 33.0723 13.806C33.2973 13.9906 33.3606 14.2402 33.3922 14.4154C33.4204 14.5905 33.459 14.9895 33.4274 15.301C33.0899 18.8588 31.6239 27.4925 30.8786 31.4775C30.5657 33.1636 29.9434 33.7289 29.3423 33.7841C28.0344 33.9043 27.043 32.9206 25.7774 32.0913C23.7981 30.793 22.6801 29.9851 20.7571 28.7184C18.5352 27.2545 19.9766 26.4498 21.2423 25.1349C21.5727 24.7907 27.3313 19.5542 27.4403 19.0793C27.4544 19.0198 27.4684 18.7984 27.3348 18.6816C27.2048 18.5646 27.0114 18.6046 26.8708 18.6363C26.6704 18.6813 23.5098 20.7724 17.3786 24.9092C16.4821 25.5259 15.67 25.8264 14.9387 25.8106C14.1372 25.7934 12.5903 25.3564 11.4407 24.983C10.0344 24.525 8.91295 24.2827 9.01139 23.5047C9.06061 23.0997 9.61959 22.6852 10.6848 22.2616Z" fill="white"/>
<defs>
<linearGradient id="paint0_linear_12542_123209" x1="2250.5" y1="0" x2="2250.5" y2="4500" gradientUnits="userSpaceOnUse">
<stop stop-color="#2AABEE"/>
<stop offset="1" stop-color="#229ED9"/>
</linearGradient>
</defs>
</svg>
