<svg width="46" height="45" viewBox="0 0 46 45" fill="none" xmlns="http://www.w3.org/2000/svg">
<path d="M1.46011 22.2296C1.45905 26.0105 2.45468 29.7022 4.34784 32.9562L1.27905 44.0739L12.7456 41.0907C15.9171 42.8038 19.4706 43.7015 23.0816 43.7017H23.091C35.0117 43.7017 44.7153 34.0768 44.7204 22.2465C44.7227 16.5139 42.4748 11.1233 38.3907 7.06772C34.3073 3.01248 28.8765 0.778007 23.0902 0.775391C11.1682 0.775391 1.46521 10.3998 1.46028 22.2296" fill="url(#paint0_linear_12542_123212)"/>
<path d="M0.688086 22.2237C0.686855 26.1406 1.71816 29.9644 3.67883 33.3349L0.5 44.8512L12.3777 41.761C15.6504 43.5316 19.3351 44.4651 23.0846 44.4665H23.0942C35.4425 44.4665 45.4947 34.4953 45.5 22.2415C45.5021 16.3029 43.1734 10.7185 38.9434 6.51767C34.7128 2.31733 29.0878 0.00244186 23.0942 0C10.7438 0 0.693008 9.96977 0.688086 22.2237ZM7.76152 32.7544L7.31803 32.0559C5.45369 29.1145 4.46967 25.7154 4.47107 22.2251C4.47512 12.0399 12.8289 3.75349 23.1013 3.75349C28.0759 3.75558 32.7509 5.67977 36.2673 9.17093C39.7834 12.6624 41.7182 17.3037 41.717 22.2401C41.7124 32.4253 33.3584 40.7128 23.0942 40.7128H23.0868C19.7447 40.711 16.4669 39.8205 13.6084 38.1375L12.9281 37.7372L5.87961 39.5709L7.76152 32.7544Z" fill="url(#paint1_linear_12542_123212)"/>
<path d="M17.4942 12.9327C17.0748 12.0078 16.6334 11.9891 16.2345 11.9729C15.9079 11.9589 15.5346 11.96 15.1616 11.96C14.7882 11.96 14.1816 12.0993 13.6688 12.6549C13.1556 13.2109 11.7092 14.5546 11.7092 17.2876C11.7092 20.0207 13.7154 22.662 13.9951 23.0329C14.2751 23.4032 17.8681 29.1911 23.5585 31.4178C28.2877 33.2682 29.2501 32.9002 30.2765 32.8074C31.303 32.7149 33.5889 31.464 34.0552 30.1668C34.5219 28.8699 34.5219 27.7581 34.382 27.5258C34.2421 27.2943 33.8687 27.1553 33.3089 26.8777C32.7488 26.5998 29.9965 25.2559 29.4833 25.0705C28.9701 24.8853 28.5969 24.7928 28.2235 25.349C27.8502 25.9044 26.7781 27.1553 26.4513 27.5258C26.1249 27.8971 25.7981 27.9434 25.2384 27.6655C24.6782 27.3868 22.8752 26.8009 20.7361 24.9086C19.0718 23.4362 17.9482 21.6179 17.6216 21.0617C17.295 20.5063 17.5867 20.2053 17.8674 19.9285C18.1189 19.6796 18.4274 19.2798 18.7076 18.9556C18.9867 18.6311 19.0799 18.3997 19.2666 18.0292C19.4534 17.6584 19.3599 17.334 19.2202 17.0561C19.0799 16.7783 17.992 14.031 17.4942 12.9327Z" fill="white"/>
<defs>
<linearGradient id="paint0_linear_12542_123212" x1="2173.35" y1="4330.63" x2="2173.35" y2="0.775391" gradientUnits="userSpaceOnUse">
<stop stop-color="#1FAF38"/>
<stop offset="1" stop-color="#60D669"/>
</linearGradient>
<linearGradient id="paint1_linear_12542_123212" x1="2250.5" y1="4485.12" x2="2250.5" y2="0" gradientUnits="userSpaceOnUse">
<stop stop-color="#F9F9F9"/>
<stop offset="1" stop-color="white"/>
</linearGradient>
</defs>
</svg>
