<svg width="46" height="45" viewBox="0 0 46 45" fill="none" xmlns="http://www.w3.org/2000/svg">
<circle cx="23" cy="22.5" r="22.5" fill="#17E8A9"/>
<path d="M29.75 24.75C29.5375 24.75 29.375 24.75 29 24.75C29 24.75 29 24.2125 29 24C29 23.7875 29 23.25 29 23.25C29 23.25 29.5375 23.25 29.75 23.25C29.9625 23.25 30.5 23.25 30.5 23.25C30.5 23.4046 30.5 23.7875 30.5 24C30.5 24.2125 30.5 24.5296 30.5 24.75C30.2661 24.75 29.9625 24.75 29.75 24.75ZM26.75 24.75C26.5375 24.75 26 24.75 26 24.75C26 24.75 26 24.2125 26 24C26 23.7875 26 23.25 26 23.25C26 23.25 26.5375 23.25 26.75 23.25C26.9625 23.25 27.5 23.25 27.5 23.25C27.5 23.25 27.5 23.7875 27.5 24C27.5 24.2125 27.5 24.375 27.5 24.75C27.5 24.75 26.9625 24.75 26.75 24.75ZM23.75 24.75C23.5375 24.75 23 24.75 23 24.75C23 24.375 23 24.2125 23 24C23 23.7875 23 23.3832 23 23.25C23.2156 23.25 23.5375 23.25 23.75 23.25C23.9625 23.25 24.5 23.25 24.5 23.25C24.5 23.4656 24.5 23.7875 24.5 24C24.5 24.2125 24.5 24.75 24.5 24.75C24.5 24.75 23.9625 24.75 23.75 24.75ZM34.25 31.1813V19.5C34.25 19.0875 34.1031 18.7344 33.8093 18.4406C33.5156 18.1469 33.1625 18 32.75 18H20.75C20.3375 18 19.9843 18.1469 19.6906 18.4406C19.3968 18.7344 19.25 19.0875 19.25 19.5V28.5C19.25 28.9125 19.3968 29.2656 19.6906 29.5594C19.9843 29.8531 20.3375 30 20.75 30H31.25L32.975 31.725C33.2125 31.9625 33.875 32.625 34.25 33C34.25 32.625 34.25 31.5188 34.25 31.1813Z" fill="white"/>
<path fill-rule="evenodd" clip-rule="evenodd" d="M11.0001 13.5V25.1813L11 27L12.2751 25.725L14.0001 24H18.5V18.75C18.5 17.9216 19.1716 17.25 20 17.25H26.0001V13.5C26.0001 13.0875 25.8532 12.7344 25.5594 12.4406C25.2657 12.1469 24.9126 12 24.5001 12H12.5001C12.0876 12 11.7344 12.1469 11.4407 12.4406C11.1469 12.7344 11.0001 13.0875 11.0001 13.5Z" fill="white"/>
</svg>
